<?xml version="1.0" encoding="UTF-8"?>
<svg version="1.1" viewBox="0 0 2000 2000" width="1280" height="1280" xmlns="http://www.w3.org/2000/svg">
<path transform="translate(1667,597)" d="m0 0 4 1 2 25 4 51v21l-4 15-14 52-7 29-9 62-7 30-8 27-9 25-12 28-3 2-22 3-11 1h-9l2-6 5-10 7-20 9-32 8-37 2-12 1-20v-28l-1-20-5-23-5-15-8-16-8-11-9-10-13-10-17-9-18-6-25-5-24-2h-30l-47 2-31 3-35 4-37 6-32 8-22 7-17 6-27 13-16 10-17 13-10 9-12 12-11 14-10 15-8 16-6 15-4 13-2 14-1 19 2 22 5 19 10 27 7 17-1 3h-33l-7-8-15-26-13-21-8-11-10-11-12-9-15-7-9-2h-22l-12 4-10 6-13 11-8 10-8 14-7 14-13 32-4 4h-33l-1-4 5-25 2-23-1-20-3-19-7-19-9-17-10-14-11-13-7-8-12-11-18-13-18-10-19-9-19-7-29-7-32-5-21-2-19-1h-42l-38 2-60 6-38 6-19 5-16 6-16 8-11 8-10 9-8 8-8 13-7 16-5 17-2 16v29l3 26 7 31 8 27 6 16 9 21 12 23 12 19 11 14 8 11-2 13-7 23-3 3-18-18-11-14-10-13-11-15-13-20-13-23-13-27-10-26-12-37-12-39-6-17-11-26-16-34-4-16-3-25-2-31-1-31 1-2 5-1 83-6 84-6 51-4 13-1 27-1h38l36 2 40 4 41 6 40 8 42 11 43 14 33 13 33 15 22 11 15 6 18 5 16 2h30l30-3 31-6 19-8 16-9 32-21 19-12 19-11 18-10 21-11 29-13 38-15 41-14 44-12 37-8 43-7 55-5 94-7 99-7z" fill="#E85F25"/>
<path transform="translate(977,923)" d="m0 0h15l14 2 10 4 12 8 10 10 7 14 3 11 1 8v15l-4 31-4 17-7 14-2 2-6-1-5-5v-7l2-12v-18l-1-18-3-12-4-8-8-7-7-3h-13l-9 3-9 6-11 12-8 12-10 16-12 22-10 22-9 24-8 28-5 24-1 16 2 9 3 2 8-1 10-6 10-9 11-9 12-11 8-7 12-11 13-12 6-7 7-6 1-2h2l2-4 9-9 3-2h7l6 5-1 8-3 10-4 33-3 19v5l11-10 11-9 10-9 14-11 17-13 10-7 20-41 16-28 9-13 13-18 8-5h12l6 5 3 9-2 12-10 26-11 29-13 33-11 33-6 26-4 25-1 17 3 10 3 2 9-1 10-6 9-9h2l2-4 9-9 18-22 9-12 26-34 11-13 6-7 10-24 15-33 18-36 11-17 8-7h8l6 3 3 4 1 4-6 17-8 19 6-4 13-11 14-10 14-9 12-5 12-3h25l11 4 7 6 6 11 2 10v11l-2 17-5 26-11 47-5 30-1 14 1 5 2 1h6l11-6 14-12 13-12 9-11 10-13 9-12 9-13 12-26 8-16 9-15 11-14 18-18 10-6 11-4 5-1h17l12 4 11 8 7 8 6 12 5 15 3-3 10-17 10-16 7 1 5 3 1 7-7 20-7 25-4 22-5 44v14l3 15 4 8 5 5 9 6 8 1 16-8 15-13 7-7 13-17 9-12 12-18 3-3 7 1 3 2v6l-7 13-12 17-14 18-11 13-11 11-14 10-9 4-5 1h-11l-12-3-9-5-10-9-7-8-9-17-4-13-2-12-1-11-18 30-11 18-10 16-10 14-12 16-11 13-12 9-9 4-6 1h-8l-10-3-7-5-6-9-4-10-3-19v-23l2-25-1 2h-2l-2 4-9 10-6 7-8 7-17 13-14 7-5 1h-10l-6-3-5-7-3-9-1-6v-22l4-36 10-58 5-28-2-7-3-3-3-1h-8l-19 7-14 8-17 12-15 14-11 12-8 11-10 17-13 27-7 21-4 23-7 25-4 10-6 8-9 4-7 1-10-3-7-6-4-8v-17l2-15 2-6h-2l-2 4-13 16-9 11-13 16-14 17-8 10-9 10-6 7-10 7-7 3h-17l-10-4-9-7-6-7-6-12-4-17-1-8v-33l4-22 6-23 1-2-11 8-15 13-11 9-13 12-8 7-12 10-5 18-10 39-9 30-10 28-12 27-14 27-9 13-11 14-16 16-13 8-8 4-15 3h-22l-12-3-10-6-6-8-2-7 1-11 5-13 9-17 11-16 10-14 10-13 11-13 9-11 12-13 14-15 39-39 8-7 14-14 6-18 12-43v-3l-10 9-25 25-8 7-12 11-11 9-17 13-12 6-15 2-12-3-9-6-6-8-4-11-1-10v-13l3-27 1-5-4 2-18 14-19 14-15 12-16 12-16 9-12 5-16 5-5 1h-23l-16-3-13-5-15-8-13-11-7-10-5-12-3-11-1-9v-10l3-22 5-17 9-21 7-11 9-12 11-12 11-10 19-13 21-11 24-8 12-2h21l12 2 10 4 9 7 5 8 2 10-2 9-6 12-10 14-16 16-17 13-15 9-21 12-19 9-19 6-12 3-12 1 3 22 4 13 7 10 7 5 11 4 5 1 16-1 17-4 25-11 20-11 23-15 18-13 16-12 11-9 3-8 12-36 9-22 12-25 10-19 10-15 11-14 8-8 14-9 11-5zm-211 73-14 4-16 9-10 8-11 11-9 12-9 16-5 11-5 16v6l9-1 14-5 24-12 19-12 17-12 12-11 5-5 8-9 8-12v-3l-10-7-10-4zm803 28-9 6-11 10-5 5-9 10-12 17-11 18-10 21-6 18-5 22-2 16-1 17 2 15 3 7 5 4 8 1 8-4 12-11 12-15 16-23 15-24 10-17 17-28 10-17-1-9-5-16-5-9-6-7-10-6-3-1zm-601 192-16 15-25 25-7 8-8 8-7 8-10 11-8 11-13 18-12 19-8 17-3 9v4l7 1 16-5 16-9 11-9 7-8 13-18 12-19 13-26 14-34 8-20 1-6z" fill="#0A5383"/>
<path transform="translate(581,872)" d="m0 0h48l15 3 16 8 7 7 4 8 2 7v15l-4 15-7 18-9 17-12 19-10 14-12 15-7 8-11 12-15 15-8 7-16 13-13 10-18 13-19 14-11 7 5 5 9 8 18 12 21 12 17 8 18 8 9 7 6 8 2 5-1 8-5 6-7 4-4 1h-11l-15-4-14-6-22-14-16-13-15-13-13-12-8-7-2 12-13 66-8 47-4 9-7 8-6 2-9 1-10-2-8-5-6-7-3-9v-9l4-26 7-36 12-48 20-72 15-53 13-50 9-31-28 17-16 10-14 10-11 9 1 4 1 6-6 6-6-1-5-4-3-5v-8l7-12 9-10 8-7 9-8 19-14 14-10 12-8 25-15 29-11 26-8 22-5zm15 19-20 3-28 7-23 8-12 5-2 4-3 27-6 42-7 39-14 70v2l6-2 21-13 24-16 19-14 28-24 10-9 8-7 13-14 12-17 10-16 8-15 7-21 1-5v-11l-4-10-7-7-11-5-4-1z" fill="#095382"/>
<path transform="translate(1192,872)" d="m0 0h6l8 5 3 5v7l-9 21-14 38-7 7-8 4h-6l-6-4-4-8v-12l5-16 11-21 8-13 6-8 5-4z" fill="#095282"/>
<path transform="translate(1417,1274)" d="m0 0h10l4 4 24 38 1-42h9l1 1v57l-2 2h-7l-6-5-10-16-12-19-1-2-1 41-1 1h-8l-1-1-1-11v-46z" fill="#1D608C"/>
<path transform="translate(1237,1273)" d="m0 0h42l1 1v8l-1 1h-32v16h31v8h-31v18l32-1 2 2v7l-9 1h-34l-2-2v-58z" fill="#115887"/>
<path transform="translate(1619,1272)" d="m0 0h14l9 4 5 6 2 6-1 3-5 1-4-2-4-6-6-2h-9l-4 2v8l3 3 22 6 6 4 3 6v11l-4 7-7 4-6 2h-11l-10-3-6-5-4-8v-5l2-1h6l3 4 3 5 4 3 3 1h9l7-4v-8l-3-3-10-3-15-5-5-5-2-5 1-9 4-7z" fill="#2C6B94"/>
<path transform="translate(1062,1274)" d="m0 0h9v51h31v8l-2 1h-37l-1-1-1-7v-51z" fill="#1C608C"/>
</svg>
